<svg width="924" height="1117" viewBox="0 0 924 1117" fill="none" xmlns="http://www.w3.org/2000/svg">
<path d="M693.123 -307.891C714.601 -329.37 749.425 -329.37 770.904 -307.891L1418.8 340.007C1440.28 361.485 1440.28 396.31 1418.8 417.788L781.629 1054.96C760.15 1076.44 725.326 1076.44 703.847 1054.96L55.9494 407.064C34.4706 385.585 34.4705 350.761 55.9493 329.282L693.123 -307.891Z" fill="#0473D5" fill-opacity="0.8"/>
<path d="M699.619 244.344C721.097 222.865 755.921 222.865 777.4 244.344L1425.3 892.241C1446.78 913.72 1446.78 948.544 1425.3 970.023L788.125 1607.2C766.646 1628.67 731.822 1628.67 710.343 1607.2L62.4454 959.298C40.9665 937.82 40.9665 902.996 62.4453 881.517L699.619 244.344Z" fill="#0473D5" fill-opacity="0.5"/>
<path d="M492.934 2.37872C570.257 -74.9451 759.176 -140.324 836.5 -63L1010.99 22.7183L1218.61 448.044C1295.94 525.368 1445.75 778.454 1368.43 855.778L933.486 1290.72C856.162 1368.04 580.982 1240.32 503.658 1163L57.9929 717.334C-19.3309 640.01 -19.331 514.643 57.9928 437.319L492.934 2.37872Z" fill="#0473D5"/>
</svg>
