<svg width="688" height="1024" viewBox="0 0 688 1024" fill="none" xmlns="http://www.w3.org/2000/svg">
<path d="M693.137 -383.109C714.616 -404.588 749.44 -404.588 770.919 -383.109L1418.82 264.788C1440.29 286.267 1440.29 321.091 1418.82 342.57L781.643 979.743C760.164 1001.22 725.34 1001.22 703.861 979.743L55.9637 331.846C34.4848 310.367 34.4848 275.543 55.9636 254.064L693.137 -383.109Z" fill="#0473D5" fill-opacity="0.8"/>
<path d="M687.633 209.125C709.112 187.646 743.936 187.646 765.415 209.125L1413.31 857.023C1434.79 878.502 1434.79 913.326 1413.31 934.805L776.139 1571.98C754.66 1593.46 719.836 1593.46 698.357 1571.98L50.4596 924.08C28.9808 902.601 28.9807 867.777 50.4596 846.298L687.633 209.125Z" fill="#0473D5" fill-opacity="0.5"/>
<path d="M492.948 -72.8395C570.272 -150.163 695.638 -150.163 772.962 -72.8395L1218.63 372.826C1295.95 450.149 1295.95 575.516 1218.63 652.84L783.686 1087.78C706.363 1165.1 580.996 1165.1 503.672 1087.78L58.0071 642.115C-19.3167 564.792 -19.3167 439.425 58.0071 362.101L492.948 -72.8395Z" fill="#0473D5"/>
</svg>
